<?xml version="1.0" encoding="UTF-8"?>
<svg version="1.1" xmlns="http://www.w3.org/2000/svg" width="709" height="709">
<path d="M0 0 C3 6.5 3 6.5 3 11 C3.66 11 4.32 11 5 11 C5.65077296 13.04009755 6.29539824 15.08215669 6.9375 17.125 C7.29714844 18.26195313 7.65679687 19.39890625 8.02734375 20.5703125 C8.91898339 23.71432699 9.53351014 26.76894393 10 30 C10.66 30 11.32 30 12 30 C13.99785435 34.1205746 14.17835515 37.45194365 14 42 C14.66 42 15.32 42 16 42 C16.84442881 43.89091736 17.67511587 45.78797515 18.5 47.6875 C18.9640625 48.74324219 19.428125 49.79898438 19.90625 50.88671875 C20.94950801 53.85627816 21.23065301 55.89195063 21 59 C21.66 59 22.32 59 23 59 C24.42258812 62.82320557 25.24042276 65.91281305 25 70 C25.99 70.33 26.98 70.66 28 71 C28 72.32 28 73.64 28 75 C28.66 75 29.32 75 30 75 C30.27263672 76.19496094 30.27263672 76.19496094 30.55078125 77.4140625 C31.87844871 83.01069147 33.27533106 87.90605372 36 93 C37.12894228 96.63770289 38.11123521 100.29681339 39 104 C39.66 104 40.32 104 41 104 C41.99 107.465 41.99 107.465 43 111 C45.475 110.505 45.475 110.505 48 110 C48 109.34 48 108.68 48 108 C49.01578125 107.62488281 50.0315625 107.24976563 51.078125 106.86328125 C57.59529135 104.44477671 64.09075953 102.00766779 70.5 99.3125 C71.46292969 98.90902344 72.42585938 98.50554687 73.41796875 98.08984375 C74.94523814 97.44520206 76.46986958 96.79414358 77.98828125 96.12890625 C83.62803063 93.79813188 89.53366596 92.82690615 95.51171875 91.74609375 C98.90654808 91.12551038 98.90654808 91.12551038 101.6015625 89.9453125 C104.36186546 88.8573755 106.73347217 88.62691243 109.6875 88.4375 C113.48780038 88.2525248 113.48780038 88.2525248 117 87 C119.61450354 86.9011988 122.20177586 86.86015059 124.81640625 86.8671875 C125.58806625 86.86623077 126.35972626 86.86527405 127.1547699 86.86428833 C128.78636761 86.86360754 130.41796803 86.8654548 132.04956055 86.86962891 C134.55588821 86.87498587 137.06203725 86.86967681 139.56835938 86.86328125 C141.15104206 86.86394191 142.73372464 86.86522281 144.31640625 86.8671875 C145.07055313 86.86516327 145.82470001 86.86313904 146.60169983 86.86105347 C151.88504376 86.88504376 151.88504376 86.88504376 153 88 C154.89070771 88.30456376 156.78817457 88.56735184 158.6875 88.8125 C168.24968733 90.2236598 177.41920259 92.48132633 186 97 C186.77085937 97.38542969 187.54171875 97.77085937 188.3359375 98.16796875 C190.22395833 99.11197917 192.11197917 100.05598958 194 101 C194 101.66 194 102.32 194 103 C194.61875 103.144375 195.2375 103.28875 195.875 103.4375 C198 104 198 104 200 105 C200 105.66 200 106.32 200 107 C200.57878906 107.26167969 201.15757812 107.52335937 201.75390625 107.79296875 C209.20380056 111.79647717 216.07293602 119.24809751 221 126 C221 126.66 221 127.32 221 128 C221.66 128 222.32 128 223 128 C223.25394531 128.53109375 223.50789063 129.0621875 223.76953125 129.609375 C225.87056938 133.98397247 225.87056938 133.98397247 228.5625 138 C230.34822272 140.48448379 231.19151144 143.01387057 232.15625 145.90234375 C232.94539289 148.09826522 232.94539289 148.09826522 234.5168457 150.14135742 C236.37465549 153.72211376 236.52112986 156.88933856 236.57421875 160.8359375 C236.5889473 161.59234528 236.60367584 162.34875305 236.61885071 163.12808228 C236.64275027 164.72998026 236.65820701 166.33202363 236.66577148 167.93408203 C236.68714451 170.33506502 236.76718205 172.72935533 236.84960938 175.12890625 C237.04965414 186.69798755 234.33147839 194.38994201 228 204 C227.31510498 205.12841309 226.63020996 206.25682617 225.92456055 207.41943359 C225.28945557 208.27102051 224.65435059 209.12260742 224 210 C223.01 210 222.02 210 221 210 C220.79375 210.556875 220.5875 211.11375 220.375 211.6875 C218.81724897 214.307354 216.89252317 215.8945509 214.515625 217.76953125 C212.83210087 219.08698697 212.83210087 219.08698697 210.875 221.1875 C207.99161001 223.97477699 206.02130396 225 202 225 C202 225.66 202 226.32 202 227 C200.10908264 227.84442881 198.21202485 228.67511587 196.3125 229.5 C195.25675781 229.9640625 194.20101563 230.428125 193.11328125 230.90625 C190.14372184 231.94950801 188.10804937 232.23065301 185 232 C185 232.66 185 233.32 185 234 C179.123639 234.84910721 173.43343074 235.1535719 167.5 235.125 C166.69691406 235.12886719 165.89382813 235.13273438 165.06640625 235.13671875 C151.11410562 235.11410562 151.11410562 235.11410562 149 233 C146.67182036 232.63239269 144.3381615 232.29758419 142 232 C142 231.34 142 230.68 142 230 C140.783125 229.87625 139.56625 229.7525 138.3125 229.625 C134.91347364 229.2001217 132.13024066 228.43821868 129 227 C125.64911458 225.46816667 122.55098211 224.72901314 118.9375 224.125 C114.81401151 223.35184591 112.53797362 222.53109374 110 219 C109.67 218.34 109.34 217.68 109 217 C107.344389 216.06606559 105.65049478 215.19897217 103.9375 214.375 C103.01839844 213.92898438 102.09929687 213.48296875 101.15234375 213.0234375 C100.44207031 212.68570313 99.73179687 212.34796875 99 212 C99 211.34 99 210.68 99 210 C98.13375 209.814375 98.13375 209.814375 97.25 209.625 C94.97664233 208.99351176 93.0746471 208.11141809 91 207 C91 206.34 91 205.68 91 205 C90.236875 204.731875 89.47375 204.46375 88.6875 204.1875 C86.0427406 203.01888538 84.99065202 201.99065202 83 200 C80.40084462 198.80972016 80.40084462 198.80972016 78 198 C78 197.34 78 196.68 78 196 C77.01 196 76.02 196 75 196 C75 196.66 75 197.32 75 198 C75.66 198 76.32 198 77 198 C77.17015625 198.53367187 77.3403125 199.06734375 77.515625 199.6171875 C79.72825325 206.41984243 82.3172403 213.03813418 85.11328125 219.62109375 C86.08721951 222.23399421 86.15802611 224.23454315 86 227 C86.66 227 87.32 227 88 227 C88 228.65 88 230.3 88 232 C88.66 232 89.32 232 90 232 C90.25394531 232.79664063 90.50789063 233.59328125 90.76953125 234.4140625 C92.53397503 239.84617031 94.39559001 244.9095623 97 250 C97.433125 251.5778125 97.433125 251.5778125 97.875 253.1875 C99.15571066 257.52768614 100.9910266 261.39206881 102.9765625 265.44921875 C104 268 104 268 104 272 C104.66 272 105.32 272 106 272 C106.39832031 273.2065625 106.79664063 274.413125 107.20703125 275.65625 C107.74210565 277.27086046 108.27726652 278.88544227 108.8125 280.5 C109.20405273 281.68722656 109.20405273 281.68722656 109.60351562 282.8984375 C110.88895742 286.77063253 112.21853959 290.60401215 113.69921875 294.40625 C115 298 115 298 115 301 C115.66 301 116.32 301 117 301 C117.33 302.98 117.66 304.96 118 307 C118.66 307 119.32 307 120 307 C120.0825 307.94875 120.165 308.8975 120.25 309.875 C120.96115141 314.9038564 123.04255668 319.35016252 125 324 C126.55224109 327.95177536 128.02467445 331.86170282 129 336 C129.66 336 130.32 336 131 336 C131.16276042 337.953125 131.32552083 339.90625 131.48828125 341.859375 C131.87148312 344.09575952 131.87148312 344.09575952 133.4453125 345.91015625 C135.32970526 348.44319677 135.8471214 350.62567958 136.5625 353.6875 C137.19619056 356.55741731 137.19619056 356.55741731 138 359 C138.66 359.33 139.32 359.66 140 360 C140.53400419 361.8338056 140.97751966 363.69434239 141.375 365.5625 C142.28431898 369.48889272 143.26566996 372.89264036 145.1875 376.4375 C146.88275073 379.76954454 147.4544717 381.36422639 147 385 C147.66 385 148.32 385 149 385 C149.23074219 385.82242187 149.46148437 386.64484375 149.69921875 387.4921875 C151.32970435 393.07321727 152.99757562 398.30120948 155.75 403.4375 C157.71708984 407.1250415 158.56099409 409.73644493 158 414 C158.66 414 159.32 414 160 414 C160.37511719 415.02738281 160.75023437 416.05476563 161.13671875 417.11328125 C166.00670875 430.72815849 166.00670875 430.72815849 172.5625 443.5703125 C174.11465015 446.19378367 175.02451491 448.87463885 176.0390625 451.73828125 C177.57485154 455.35300424 179.68881433 458.59117775 181.79296875 461.8984375 C183 464 183 464 183 466 C183.66 466 184.32 466 185 466 C187.875 472.625 187.875 472.625 189 476 C189.598125 476.28875 190.19625 476.5775 190.8125 476.875 C193.69152822 478.35564308 195.03316291 480.46214569 197 483 C197.99 483.66 198.98 484.32 200 485 C200 485.66 200 486.32 200 487 C201.65 487.33 203.3 487.66 205 488 C205 488.66 205 489.32 205 490 C205.70125 490.12375 206.4025 490.2475 207.125 490.375 C214.99013807 492.08481262 214.99013807 492.08481262 218 494.8125 C219 497 219 497 218.0625 499.63671875 C217.711875 500.41660156 217.36125 501.19648437 217 502 C198.76354002 502.02332809 180.52708389 502.04097873 162.29061222 502.05181217 C153.82370061 502.05697532 145.35679825 502.06401838 136.88989258 502.07543945 C129.51282906 502.08538572 122.13577225 502.09185329 114.75870222 502.09408849 C110.85017947 502.0953957 106.94167588 502.09848217 103.03315926 502.10573006 C99.35853558 502.11248937 95.68393907 502.11461715 92.00930977 502.11310768 C90.00920389 502.11351638 88.00910102 502.11891204 86.00900269 502.12442017 C84.23996834 502.12235817 84.23996834 502.12235817 82.43519592 502.12025452 C81.40370957 502.12117631 80.37222322 502.1220981 79.30947971 502.12304783 C77 502 77 502 76 501 C75.95919217 499.00041636 75.95745644 496.99954746 76 495 C81.70815007 492.69478555 87.35881685 491.10690066 93.36328125 489.74609375 C96.19821876 489.08972022 96.19821876 489.08972022 99 487 C99.9075 486.731875 100.815 486.46375 101.75 486.1875 C109.49232012 483.35857534 114.3021852 478.34548973 118 471 C118.6402535 468.59121409 118.84353018 466.50351709 119 464 C119.33 463.67 119.66 463.34 120 463 C120.0983721 461.66956375 120.13078592 460.33406656 120.1328125 459 C120.13474609 457.7934375 120.13474609 457.7934375 120.13671875 456.5625 C120.13285156 455.716875 120.12898438 454.87125 120.125 454 C120.12886719 453.154375 120.13273437 452.30875 120.13671875 451.4375 C120.13542969 450.633125 120.13414062 449.82875 120.1328125 449 C120.13168457 448.2575 120.13055664 447.515 120.12939453 446.75 C120.18942216 444.97174189 120.18942216 444.97174189 119 444 C118.67256107 442.02643625 118.38879284 440.04557425 118.125 438.0625 C117.25659563 432.14568518 115.86912712 426.66735336 114 421 C112.70129314 416.83046745 111.73477742 413.37617252 112 409 C111.34 409 110.68 409 110 409 C109.70996094 407.95199219 109.70996094 407.95199219 109.4140625 406.8828125 C109.15367187 405.97273438 108.89328125 405.06265625 108.625 404.125 C108.24214844 402.76761719 108.24214844 402.76761719 107.8515625 401.3828125 C107.1395685 398.85430274 107.1395685 398.85430274 105 397 C105 395.68 105 394.36 105 393 C104.34 393 103.68 393 103 393 C100.71428571 384.57142857 100.71428571 384.57142857 101 380 C100.34 380 99.68 380 99 380 C98.70996094 378.95199219 98.70996094 378.95199219 98.4140625 377.8828125 C98.15367187 376.97273438 97.89328125 376.06265625 97.625 375.125 C97.24214844 373.76761719 97.24214844 373.76761719 96.8515625 372.3828125 C96.1395685 369.85430274 96.1395685 369.85430274 94 368 C93.875 364.875 93.875 364.875 94 362 C93.34 362 92.68 362 92 362 C90.86745024 359.33041843 89.93210632 356.74409305 89.1875 353.9375 C87.95696693 349.38552807 85.95196783 345.15900356 84.0234375 340.8671875 C83.00593711 338.01663298 82.79153648 335.99529168 83 333 C82.34 333 81.68 333 81 333 C78.10831721 326.58800774 78.10831721 326.58800774 77.5625 323.625 C76.84628307 320.28265431 75.46601786 317.42986017 74.04296875 314.33203125 C72.8030698 311.55967292 71.75358131 308.74294219 70.71484375 305.890625 C70.04141252 304.10952818 69.27335158 302.36504104 68.5 300.625 C67.01701313 297.04111506 65.90519783 293.48669098 64.8203125 289.76953125 C63.9008415 286.66522201 62.93361806 283.58058733 61.9375 280.5 C61.45603516 278.99953125 61.45603516 278.99953125 60.96484375 277.46875 C60.14077941 274.87331176 60.14077941 274.87331176 58 273 C57.28591666 271.01643517 56.61382258 269.01684563 56 267 C55.97253771 268.68740514 55.95339889 270.3749463 55.9375 272.0625 C55.92009766 273.47208984 55.92009766 273.47208984 55.90234375 274.91015625 C55.9379826 278.02911496 55.9379826 278.02911496 56.49560547 281.19287109 C57.01988069 285.15005785 57.16118385 289.02116803 57.16796875 293.00390625 C57.17206757 293.75668854 57.17616638 294.50947083 57.1803894 295.2850647 C57.18990111 297.71092352 57.18992429 300.13662532 57.1875 302.5625 C57.18789276 303.38626129 57.18828552 304.21002258 57.18869019 305.05874634 C57.16889198 339.66221604 57.16889198 339.66221604 54 346 C53.52922698 349.65216882 53.13080135 353.30455885 52.75 356.96679688 C52.10162991 362.89837009 52.10162991 362.89837009 51 364 C50.50274647 366.43534409 50.05069761 368.86452963 49.625 371.3125 C46.58959504 388.10214244 46.58959504 388.10214244 43.98046875 394.5 C42.96003778 397.10189569 42.38725417 399.56828124 41.875 402.3125 C41.62363281 403.63701172 41.62363281 403.63701172 41.3671875 404.98828125 C41.24601563 405.65214844 41.12484375 406.31601562 41 407 C40.34 407 39.68 407 39 407 C38.8453125 407.7734375 38.8453125 407.7734375 38.6875 408.5625 C37.9733226 411.09458351 37.00334416 413.43149086 35.93359375 415.83203125 C35.24178786 417.43852611 34.59484292 419.06450016 33.97265625 420.69921875 C31.32599426 427.51637841 28.0343858 433.29551176 23.86328125 439.296875 C21.6964252 442.44040621 19.84668396 445.6617636 18 449 C17.34 449.99 16.68 450.98 16 452 C15.34 452 14.68 452 14 452 C13.9175 452.7425 13.835 453.485 13.75 454.25 C12.85190201 457.54302595 11.61583926 458.85976788 9 461 C8.34 461 7.68 461 7 461 C6.34 462.65 5.68 464.3 5 466 C4.34 466 3.68 466 3 466 C2.6596875 466.8353125 2.6596875 466.8353125 2.3125 467.6875 C0.62449964 470.66159588 -1.46676517 472.72008865 -4 475 C-4.66 475 -5.32 475 -6 475 C-6 475.66 -6 476.32 -6 477 C-7.98260426 478.68732277 -9.9832342 480.35366057 -12 482 C-12.33 482.66 -12.66 483.32 -13 484 C-14.64237914 485.03940778 -16.31390615 486.03311567 -18 487 C-19.75275588 488.12070149 -21.50266091 489.24587153 -23.25 490.375 C-36.56668701 498.85742411 -36.56668701 498.85742411 -42 500 C-42 500.66 -42 501.32 -42 502 C-42.83402344 502.25394531 -43.66804687 502.50789063 -44.52734375 502.76953125 C-52.01928049 505.05366096 -52.01928049 505.05366096 -59.4375 507.5625 C-71.91076539 511.64107402 -83.54375092 512.45344422 -96.56103516 512.33618164 C-99.391236 512.31236336 -102.22050392 512.31567223 -105.05078125 512.32226562 C-106.87500555 512.31669378 -108.69922595 512.30958702 -110.5234375 512.30078125 C-111.35692719 512.30169266 -112.19041687 512.30260406 -113.04916382 512.30354309 C-120.67685094 512.21209664 -127.28289176 510.33537781 -134.5 507.875 C-136.06234375 507.34519531 -136.06234375 507.34519531 -137.65625 506.8046875 C-138.4296875 506.53914063 -139.203125 506.27359375 -140 506 C-140 505.34 -140 504.68 -140 504 C-140.763125 503.855625 -141.52625 503.71125 -142.3125 503.5625 C-145 503 -145 503 -148 502 C-148 501.34 -148 500.68 -148 500 C-148.57105469 499.89945313 -149.14210937 499.79890625 -149.73046875 499.6953125 C-156.31496923 497.67803008 -161.77169744 491.4148985 -166.4375 486.5546875 C-168.11223513 484.81632246 -168.11223513 484.81632246 -170.75 482.9375 C-173.48464126 480.58267002 -174.47555363 478.24773357 -176 475 C-176.9590625 473.8553125 -176.9590625 473.8553125 -177.9375 472.6875 C-180.25396075 469.66908145 -181.58629812 466.69044484 -183.05859375 463.203125 C-183.84058281 461.37307591 -184.72111146 459.58551214 -185.625 457.8125 C-188.10033829 452.74930805 -189.26953351 448.66020368 -189 443 C-189.66 443 -190.32 443 -191 443 C-192.95259593 437.27957591 -193.27982137 432.21792162 -193.23046875 426.19921875 C-193.23001053 425.28163284 -193.22955231 424.36404694 -193.2290802 423.4186554 C-193.22607396 421.49157406 -193.21823684 419.56449479 -193.20581055 417.63745117 C-193.18744996 414.67943794 -193.18530182 411.7217364 -193.18554688 408.76367188 C-193.18063493 406.88801811 -193.17480802 405.01236647 -193.16796875 403.13671875 C-193.16685593 402.25030197 -193.1657431 401.36388519 -193.16459656 400.4506073 C-193.11610473 394.23220946 -193.11610473 394.23220946 -192 392 C-191.87625 391.278125 -191.7525 390.55625 -191.625 389.8125 C-191.0007582 387.00341188 -189.98186907 384.60234766 -188.80078125 381.98828125 C-187.93973575 379.85036828 -187.3861276 377.73159641 -186.8125 375.5 C-183.72766224 364.86542773 -177.3443477 354.97098847 -171 346 C-170.34 345.01 -169.68 344.02 -169 343 C-168.34 343 -167.68 343 -167 343 C-166.79375 342.34 -166.5875 341.68 -166.375 341 C-163.27322223 334.23248487 -158.53290853 329.32690144 -152.8828125 324.58984375 C-150.44256401 322.52930198 -148.22708859 320.28728017 -146 318 C-131.50767041 303.36201886 -114.88419126 289.72862812 -97.0625 279.27734375 C-94.8639872 278.16542512 -94.8639872 278.16542512 -94 276 C-92.04741237 274.91863421 -90.03840042 274.02303488 -88.0078125 273.09765625 C-85.93381375 272.09367949 -85.93381375 272.09367949 -84.4296875 270.37109375 C-83 269 -83 269 -80 269 C-80 268.34 -80 267.68 -80 267 C-78.948125 266.401875 -77.89625 265.80375 -76.8125 265.1875 C-74.57308622 263.91366341 -72.37609806 262.61179435 -70.1875 261.25 C-68 260 -68 260 -66 260 C-66 259.34 -66 258.68 -66 258 C-65.28972656 257.66226562 -64.57945312 257.32453125 -63.84765625 256.9765625 C-62.92855469 256.53054688 -62.00945312 256.08453125 -61.0625 255.625 C-60.14597656 255.18414062 -59.22945312 254.74328125 -58.28515625 254.2890625 C-55.87096198 253.20800838 -55.87096198 253.20800838 -55 251 C-54.01 251 -53.02 251 -52 251 C-52 250.34 -52 249.68 -52 249 C-49.35261084 247.5393715 -48.10551666 247 -45 247 C-44.67 246.01 -44.34 245.02 -44 244 C-41.0974856 241.96039529 -38.49158202 240.64658926 -35 240 C-35 239.34 -35 238.68 -35 238 C-32.79681715 236.48251682 -30.59873965 235.0692932 -28.3125 233.6875 C-23.61824417 230.8496749 -19.79543034 228.03019923 -16 224 C-14.78636407 222.87878524 -13.55926055 221.77176143 -12.3125 220.6875 C-11.73113281 220.17574219 -11.14976562 219.66398438 -10.55078125 219.13671875 C-9 218 -9 218 -7 218 C-6.938125 217.443125 -6.87625 216.88625 -6.8125 216.3125 C-5.67495299 213.0748662 -3.40828848 211.40828848 -1 209 C1.22959981 204.7977712 1.24063231 200.83502919 1.125 196.1875 C1.11597656 195.49462891 1.10695313 194.80175781 1.09765625 194.08789062 C1.07426157 192.39177605 1.03839641 190.69584129 1 189 C-0.65 188.34 -2.3 187.68 -4 187 C-4 186.34 -4 185.68 -4 185 C-5.32 185 -6.64 185 -8 185 C-8 185.66 -8 186.32 -8 187 C-8.59425781 187.08894531 -9.18851563 187.17789063 -9.80078125 187.26953125 C-21.89148202 189.88322862 -28.97405164 200.5699146 -35.87109375 210.0703125 C-41.72315056 218.12360169 -47.81324166 226.18309276 -56 232 C-56.99 232 -57.98 232 -59 232 C-59 232.66 -59 233.32 -59 234 C-65.19334141 237.37818622 -71.00882255 237.88238162 -78 237 C-81.42756629 235.7171297 -83.44726473 233.9044759 -85.375 230.75 C-85.58125 230.1725 -85.7875 229.595 -86 229 C-86.66 229 -87.32 229 -88 229 C-88.08174796 226.16607074 -88.14084985 223.33455181 -88.1875 220.5 C-88.21263672 219.70851563 -88.23777344 218.91703125 -88.26367188 218.1015625 C-88.33347013 212.42463749 -87.3290046 208.15374111 -85 203 C-82.94094853 198.25317905 -81.13859432 193.55481632 -79.5625 188.625 C-77.9424634 183.63203007 -76.12052943 178.847276 -73.89453125 174.09375 C-72.92441164 171.82307703 -72.23522532 169.56270894 -71.5625 167.1875 C-69.50980103 159.98622821 -66.43308545 153.19688293 -63.375 146.375 C-62.29611012 143.72681575 -61.46388134 141.23752958 -60.6875 138.5 C-59.17382186 133.23855194 -57.16014849 128.23022397 -55.0690918 123.17773438 C-53.82300819 120.14988255 -52.662013 117.21318506 -52 114 C-51.34 114 -50.68 114 -50 114 C-50.0825 113.34 -50.165 112.68 -50.25 112 C-49.95379003 108.44548041 -48.73962722 106.34651918 -47.08203125 103.2421875 C-45.19454275 99.33092973 -44.14405814 95.17682763 -43 91 C-42.60529877 89.6246746 -42.20961541 88.24963027 -41.8125 86.875 C-41.544375 85.92625 -41.27625 84.9775 -41 84 C-40.34 84 -39.68 84 -39 84 C-38.8453125 82.7625 -38.8453125 82.7625 -38.6875 81.5 C-37.89212339 77.45080998 -36.53389001 73.81112673 -35 70 C-34.02063077 67.56258108 -33.04127689 65.12515678 -32.0625 62.6875 C-31.80154541 62.03789307 -31.54059082 61.38828613 -31.27172852 60.71899414 C-28.15140036 52.92352177 -25.16547121 45.12051702 -23 37 C-22.34 37 -21.68 37 -21 37 C-20.67 34.69 -20.34 32.38 -20 30 C-19.34 30 -18.68 30 -18 30 C-17.855625 29.113125 -17.71125 28.22625 -17.5625 27.3125 C-17.08980022 24.52882354 -16.56929815 21.76516243 -16 19 C-15.34 19 -14.68 19 -14 19 C-13.8453125 17.4840625 -13.8453125 17.4840625 -13.6875 15.9375 C-12.98139756 11.89345875 -11.68686926 8.72516962 -10 5 C-9.814375 4.21625 -9.62875 3.4325 -9.4375 2.625 C-9.293125 2.08875 -9.14875 1.5525 -9 1 C-6.04335481 -0.4783226 -3.25770263 -0.06032783 0 0 Z M-22 63 C-22.14695312 63.64324219 -22.29390625 64.28648437 -22.4453125 64.94921875 C-23.78099552 70.33033251 -25.453217 75.19413298 -27.875 80.1875 C-30.89690633 86.46434524 -32.95898098 92.80851122 -34.921875 99.46875 C-36 103 -36 103 -37.140625 105.78125 C-38.18058916 108.06968758 -38.18058916 108.06968758 -38 111 C-38.66 111 -39.32 111 -40 111 C-40.17740723 111.53584717 -40.35481445 112.07169434 -40.53759766 112.6237793 C-42.44474997 118.3669225 -44.38767823 124.09659461 -46.375 129.8125 C-46.67809082 130.68471191 -46.98118164 131.55692383 -47.29345703 132.45556641 C-49.3277101 138.24701511 -51.53144878 143.89427378 -54.0546875 149.4921875 C-55.11748361 152.31167139 -55.59178797 155.02092074 -56 158 C-56.66 158 -57.32 158 -58 158 C-58.37125 159.36125 -58.37125 159.36125 -58.75 160.75 C-60.90234267 168.21546829 -63.2244112 175.53441545 -66.5625 182.5625 C-68.71056179 187.10748439 -70.03204861 191.56870836 -71.25 196.43359375 C-72.17095805 199.58499707 -73.55665463 202.29063809 -75.08203125 205.18359375 C-78.28195842 211.51536454 -78.51729702 218.04656563 -78 225 C-76.22790286 226.77209714 -73.77731982 226.25586963 -71.375 226.3125 C-64.68123536 226.22536224 -61.00720772 225.07088977 -56.33984375 220.3046875 C-55.17184227 218.99035326 -54.0292751 217.6530737 -52.91015625 216.296875 C-49.98251192 212.7765174 -46.83520694 209.4583367 -43.72265625 206.1015625 C-41.78868598 204.19510178 -41.78868598 204.19510178 -42 202 C-41.34 202 -40.68 202 -40 202 C-39.773125 201.443125 -39.54625 200.88625 -39.3125 200.3125 C-37.63284254 197.35310353 -35.42409396 195.38951344 -33 193 C-31.75863281 191.65421875 -31.75863281 191.65421875 -30.4921875 190.28125 C-23.23546409 182.56962751 -16.28090022 176.99528194 -5.3125 176.375 C0.13852928 176.64794138 3.94330486 178.38294669 8 182 C13.15965871 188.36357908 13.29836633 196.22935257 12.625 204 C12.56828125 204.77472656 12.5115625 205.54945313 12.453125 206.34765625 C12.31349576 208.23265095 12.15838619 210.11648861 12 212 C11.34 212 10.68 212 10 212 C9.67 213.98 9.34 215.96 9 218 C8.34 218 7.68 218 7 218 C6.72027344 218.556875 6.44054687 219.11375 6.15234375 219.6875 C1.99869124 227.59413114 -2.99161891 233.4782452 -10 239 C-10 239.66 -10 240.32 -10 241 C-12.475 241.99 -12.475 241.99 -15 243 C-15 243.66 -15 244.32 -15 245 C-17 246 -19 247 -21 248 C-21 248.66 -21 249.32 -21 250 C-22.09441406 250.36931641 -22.09441406 250.36931641 -23.2109375 250.74609375 C-26.28617309 252.12865765 -28.18436439 253.75186388 -30.625 256.0625 C-34.68685927 259.89561976 -34.68685927 259.89561976 -38 261 C-38 261.66 -38 262.32 -38 263 C-40.24283093 264.12141546 -42.48678739 265.23233034 -44.75 266.3125 C-50.57670089 269.32960867 -50.57670089 269.32960867 -56 273 C-56 273.66 -56 274.32 -56 275 C-56.99 275 -57.98 275 -59 275 C-59 275.66 -59 276.32 -59 277 C-59.5775 277.0928125 -60.155 277.185625 -60.75 277.28125 C-63.52193962 278.16673071 -64.90190451 279.50025274 -67 281.5 C-69.62636055 284.0032499 -71.37928819 285.41809989 -75 286 C-75 286.66 -75 287.32 -75 288 C-75.8647998 288.4029126 -75.8647998 288.4029126 -76.74707031 288.81396484 C-80.75581767 290.92433488 -84.18596543 293.84714953 -87.75 296.625 C-88.5234375 297.21667969 -89.296875 297.80835938 -90.09375 298.41796875 C-95.46708886 302.5922236 -100.28603807 307.09916834 -105 312 C-110 317 -110 317 -111.953125 318.77734375 C-118.97060507 325.36543256 -123.92612742 332.89842479 -129 341 C-129.60199219 341.94746094 -130.20398438 342.89492188 -130.82421875 343.87109375 C-136.84569842 353.31214242 -136.84569842 353.31214242 -139 364 C-139.66 364 -140.32 364 -141 364 C-141.20496094 364.99902344 -141.40992188 365.99804688 -141.62109375 367.02734375 C-141.89050781 368.31769531 -142.15992188 369.60804688 -142.4375 370.9375 C-142.83775391 372.86916016 -142.83775391 372.86916016 -143.24609375 374.83984375 C-144 378 -144 378 -145 379 C-147.18810144 387.30973213 -147.27442682 395.58787167 -147.1875 404.125 C-147.18685547 405.33542969 -147.18621094 406.54585938 -147.18554688 407.79296875 C-147.89051306 419.1859416 -147.89051306 419.1859416 -144 429 C-143.38649958 431.1894648 -142.85440188 433.40231857 -142.375 435.625 C-142.11460937 436.81351563 -141.85421875 438.00203125 -141.5859375 439.2265625 C-141.29589844 440.59941406 -141.29589844 440.59941406 -141 442 C-140.34 442 -139.68 442 -139 442 C-138.89816406 442.71800781 -138.79632813 443.43601562 -138.69140625 444.17578125 C-136.57371699 452.82600348 -128.0690476 464.71906304 -120.5859375 469.5625 C-119.30589844 470.2740625 -119.30589844 470.2740625 -118 471 C-116.25 472.16666667 -114.5 473.33333333 -112.75 474.5 C-106.69828485 478.36297067 -101.24233356 481 -94 481 C-94 481.66 -94 482.32 -94 483 C-79.23706302 483.89392492 -64.75828326 483.98997772 -50 483 C-50 482.34 -50 481.68 -50 481 C-49.071875 480.9175 -48.14375 480.835 -47.1875 480.75 C-37.24043778 479.26894848 -29.19188588 474.5782842 -21 469 C-19.77099626 468.22890692 -18.54186477 467.45801735 -17.3125 466.6875 C-16.1678125 465.8521875 -16.1678125 465.8521875 -15 465 C-15 464.34 -15 463.68 -15 463 C-14.195625 462.731875 -13.39125 462.46375 -12.5625 462.1875 C-11.716875 461.795625 -10.87125 461.40375 -10 461 C-9.67 460.01 -9.34 459.02 -9 458 C-7.66666667 457.33333333 -6.33333333 456.66666667 -5 456 C-2.34644569 453.60532904 -0.26861669 451.45127603 1.5625 448.375 C3.11440423 445.81098431 4.63191543 444.77606343 7 443 C8.0283398 441.3506683 9.02408183 439.68088117 10 438 C11.14231447 436.22689471 12.28827272 434.45613263 13.4375 432.6875 C18.65313609 424.48681433 22.33495753 415.98863263 26 407 C26.38671875 406.09378906 26.7734375 405.18757813 27.171875 404.25390625 C29.191467 399.44639922 30.54753311 395.20336928 31 390 C31.66 390 32.32 390 33 390 C33.27714844 388.85660156 33.55429687 387.71320313 33.83984375 386.53515625 C34.20554378 385.04422535 34.57143929 383.55334239 34.9375 382.0625 C35.21110352 380.93038086 35.21110352 380.93038086 35.49023438 379.77539062 C36.88671875 374.11328125 36.88671875 374.11328125 38 373 C38.04080783 371.00041636 38.04254356 368.99954746 38 367 C38.66 367 39.32 367 40 367 C40.20496094 365.75863281 40.40992188 364.51726562 40.62109375 363.23828125 C40.89318572 361.59634697 41.16532355 359.95442028 41.4375 358.3125 C41.57220703 357.49587891 41.70691406 356.67925781 41.84570312 355.83789062 C41.97783203 355.04189453 42.10996094 354.24589844 42.24609375 353.42578125 C42.36654053 352.69786377 42.4869873 351.96994629 42.61108398 351.2199707 C42.87713364 349.70133319 43.17988781 348.1887949 43.51367188 346.68359375 C44.51055614 341.18271429 44.6094 335.55092098 44.92993164 329.9753418 C45.05989238 327.73250187 45.19847619 325.49031637 45.33789062 323.24804688 C46.21415867 308.6584508 46.08925136 294.12149009 45.62768555 279.51782227 C45.56240611 277.4345035 45.50266471 275.35107457 45.44335938 273.26757812 C45.60497264 257.88941369 45.60497264 257.88941369 43 243 C42.9713556 240.97033967 43.0641685 238.96476136 43.16015625 236.9375 C43.13022844 234.67071664 43.13022844 234.67071664 41 232 C40.5859375 229.73828125 40.5859375 229.73828125 40.375 227.3125 C40.30023438 226.50425781 40.22546875 225.69601562 40.1484375 224.86328125 C40.07496094 223.94095703 40.07496094 223.94095703 40 223 C39.34 223 38.68 223 38 223 C38.061875 221.845 38.12375 220.69 38.1875 219.5 C38.17506235 212.42297981 34.78272896 206.50972944 31.91796875 200.1875 C30.65460609 197.17693366 29.80707021 194.16102499 29 191 C28.34 191 27.68 191 27 191 C26.87367188 190.30777344 26.74734375 189.61554688 26.6171875 188.90234375 C25.94208841 185.72766892 25.06868819 182.66789254 24.125 179.5625 C23.79757812 178.47066406 23.47015625 177.37882812 23.1328125 176.25390625 C21.99987567 172.99964289 20.56137186 170.06651703 19 167 C18.3125 164.125 18.3125 164.125 18 162 C17.34 162 16.68 162 16 162 C15.67 160.35 15.34 158.7 15 157 C14.34 157 13.68 157 13 157 C12.9175 155.72125 12.835 154.4425 12.75 153.125 C12.24292482 148.45843852 10.82412647 144.58596235 8.98046875 140.29296875 C7.82002661 137.57910606 6.93288211 134.79864633 6 132 C5.36184656 130.65278717 4.70674629 129.31252882 4 128 C3.34 128 2.68 128 2 128 C1.93941406 127.40832031 1.87882813 126.81664062 1.81640625 126.20703125 C1.37987629 122.09021792 0.91328654 118.04455467 0 114 C-0.66 114 -1.32 114 -2 114 C-2.4021875 112.2675 -2.4021875 112.2675 -2.8125 110.5 C-3.88385122 106.18376486 -5.37472237 102.13707033 -7 98 C-7.66 98 -8.32 98 -9 98 C-9.103125 96.80375 -9.20625 95.6075 -9.3125 94.375 C-9.66351734 91.53719781 -10.0732499 89.85350019 -11.375 87.25 C-13.3929342 83.21413161 -14.26600331 79.19164631 -15.25390625 74.8046875 C-15.92218142 72.29253266 -16.73980521 70.26077864 -18 68 C-18.66 68 -19.32 68 -20 68 C-20.495 65.525 -20.495 65.525 -21 63 C-21.33 63 -21.66 63 -22 63 Z M113 98 C110.27745194 98.27620053 107.55500309 98.44599571 104.82421875 98.62109375 C101.92053964 99.01066066 99.68597824 99.86482783 97 101 C95.9275 101.144375 94.855 101.28875 93.75 101.4375 C89.25762211 102.11135668 85.26962148 103.49477751 81 105 C79.58382931 105.45986354 78.16715772 105.91818725 76.75 106.375 C68.32401586 109.18857163 60.02108025 112.38057895 52 116.203125 C49.69622701 117.12103455 47.43883642 117.5765909 45 118 C45.45294865 119.75140143 45.91258748 121.50107344 46.375 123.25 C46.63023437 124.22453125 46.88546875 125.1990625 47.1484375 126.203125 C47.89598509 128.65837303 48.77123817 130.75617405 50 133 C50.66 133 51.32 133 52 133 C52.33 135.64 52.66 138.28 53 141 C53.33 141 53.66 141 54 141 C54.18175781 141.64066406 54.36351562 142.28132813 54.55078125 142.94140625 C55.73239699 147.00737632 56.91038487 150.9981116 58.625 154.875 C59.691291 157.29838864 60.48436 159.4218 61 162 C61.66 162 62.32 162 63 162 C63.33 164.64 63.66 167.28 64 170 C64.66 170 65.32 170 66 170 C65.95875 170.721875 65.9175 171.44375 65.875 172.1875 C66.00921305 175.20729369 66.75170619 177.26935729 68 180 C68.495 178.515 68.495 178.515 69 177 C74.34553395 177.32727759 77.24792754 178.48898849 81.421875 181.84375 C83.11581691 183.20838363 83.11581691 183.20838363 86 184 C86.33 184.66 86.66 185.32 87 186 C88.6635479 186.67441131 90.33066942 187.3400321 92 188 C93.33790641 188.99387334 94.67218122 189.9926892 96 191 C96.66 191 97.32 191 98 191 C98 191.66 98 192.32 98 193 C100.90600261 194.25664978 102.79604584 195 106 195 C106 195.66 106 196.32 106 197 C110.3041216 198.7485494 114.63755705 200.40359878 119 202 C119.6909375 202.26039063 120.381875 202.52078125 121.09375 202.7890625 C138.33209195 208.97238081 160.55972082 210.10921781 177.4375 202.4375 C178.283125 201.963125 179.12875 201.48875 180 201 C181.65910004 200.31471955 183.32332564 199.64108137 185 199 C185 198.34 185 197.68 185 197 C185.99 197 186.98 197 188 197 C188 196.34 188 195.68 188 195 C188.845625 194.814375 189.69125 194.62875 190.5625 194.4375 C199.21548372 190.81897953 203.73407047 182.45372355 207.8125 174.4375 C209.08851582 170.74377 209.23751324 167.87938286 209 164 C209.66 164 210.32 164 211 164 C211 159.05 211 154.1 211 149 C210.34 149 209.68 149 209 149 C208.938125 147.72125 208.87625 146.4425 208.8125 145.125 C208.29154523 140.26786287 206.58172015 136.6119783 204.25390625 132.359375 C203 130 203 130 202.02734375 127.328125 C201.11028621 124.68548234 201.11028621 124.68548234 198 123 C197.525625 122.195625 197.05125 121.39125 196.5625 120.5625 C194.9525023 117.92210376 193.61660551 116.60372596 191 115 C190.34 115 189.68 115 189 115 C189 114.34 189 113.68 189 113 C186.69614555 111.24248403 186.69614555 111.24248403 183.8125 109.5 C182.84957031 108.8915625 181.88664063 108.283125 180.89453125 107.65625 C176.65377806 105.22969217 173.93270685 104 169 104 C169 103.34 169 102.68 169 102 C156.78209815 97.86301292 144.71198425 96.67661837 131.88452148 96.79418945 C129.7764107 96.81281892 127.66873262 96.81469581 125.56054688 96.81445312 C119.08478156 96.46630758 119.08478156 96.46630758 113 98 Z M54 260 C55 263 55 263 55 263 Z " fill="#FEFEFE" transform="translate(354,90)"/>
<path d="M0 0 C11.88 0 23.76 0 36 0 C36 0.33 36 0.66 36 1 C24.12 1 12.24 1 0 1 C0 0.67 0 0.34 0 0 Z " fill="#FEFEFE" transform="translate(237,603)"/>
<path d="M0 0 C0.33 0 0.66 0 1 0 C1 6.93 1 13.86 1 21 C0.67 21 0.34 21 0 21 C0 14.07 0 7.14 0 0 Z " fill="#FEFEFE" transform="translate(591,251)"/>
<path d="M0 0 C0.33 0 0.66 0 1 0 C1 3.96 1 7.92 1 12 C0.67 12 0.34 12 0 12 C0 8.04 0 4.08 0 0 Z " fill="#FFFFFF" transform="translate(159,498)"/>
<path d="" fill="#FEFEFE" transform="translate(0,0)"/>
</svg>
